<svg width="24" height="25" viewBox="0 0 24 25" fill="none" xmlns="http://www.w3.org/2000/svg">
<path d="M6.96 0.288086H17.04C20.88 0.288086 24 3.40809 24 7.24809V17.3281C24 19.174 23.2667 20.9443 21.9615 22.2495C20.6562 23.5548 18.8859 24.2881 17.04 24.2881H6.96C3.12 24.2881 0 21.1681 0 17.3281V7.24809C0 5.40218 0.733284 3.63188 2.03854 2.32662C3.34379 1.02137 5.11409 0.288086 6.96 0.288086ZM6.72 2.68809C5.57427 2.68809 4.47546 3.14323 3.6653 3.95338C2.85514 4.76354 2.4 5.86235 2.4 7.00809V17.5681C2.4 19.9561 4.332 21.8881 6.72 21.8881H17.28C18.4257 21.8881 19.5245 21.4329 20.3347 20.6228C21.1449 19.8126 21.6 18.7138 21.6 17.5681V7.00809C21.6 4.62009 19.668 2.68809 17.28 2.68809H6.72ZM18.3 4.48809C18.6978 4.48809 19.0794 4.64612 19.3607 4.92743C19.642 5.20873 19.8 5.59026 19.8 5.98809C19.8 6.38591 19.642 6.76744 19.3607 7.04875C19.0794 7.33005 18.6978 7.48809 18.3 7.48809C17.9022 7.48809 17.5206 7.33005 17.2393 7.04875C16.958 6.76744 16.8 6.38591 16.8 5.98809C16.8 5.59026 16.958 5.20873 17.2393 4.92743C17.5206 4.64612 17.9022 4.48809 18.3 4.48809ZM12 6.28809C13.5913 6.28809 15.1174 6.92023 16.2426 8.04545C17.3679 9.17066 18 10.6968 18 12.2881C18 13.8794 17.3679 15.4055 16.2426 16.5307C15.1174 17.6559 13.5913 18.2881 12 18.2881C10.4087 18.2881 8.88258 17.6559 7.75736 16.5307C6.63214 15.4055 6 13.8794 6 12.2881C6 10.6968 6.63214 9.17066 7.75736 8.04545C8.88258 6.92023 10.4087 6.28809 12 6.28809ZM12 8.68809C11.0452 8.68809 10.1295 9.06737 9.45442 9.7425C8.77928 10.4176 8.4 11.3333 8.4 12.2881C8.4 13.2429 8.77928 14.1585 9.45442 14.8337C10.1295 15.5088 11.0452 15.8881 12 15.8881C12.9548 15.8881 13.8705 15.5088 14.5456 14.8337C15.2207 14.1585 15.6 13.2429 15.6 12.2881C15.6 11.3333 15.2207 10.4176 14.5456 9.7425C13.8705 9.06737 12.9548 8.68809 12 8.68809Z" fill="black"/>
</svg>
